<?xml version="1.0" encoding="UTF-8" standalone="no"?>
<!DOCTYPE svg PUBLIC "-//W3C//DTD SVG 1.1//EN" "http://www.w3.org/Graphics/SVG/1.1/DTD/svg11.dtd">
<svg width="1000" height="500" viewBox="0 0 1000 500" xmlns="http://www.w3.org/2000/svg" xmlns:xlink="http://www.w3.org/1999/xlink">

<pattern id="sync_h" patternUnits="userSpaceOnUse" width="4" height="4">
<rect x="0" y="0" width="4" height="4" style="fill:#8be"/>
<path d="M-1,1 l2,-2  M0,4 l4,-4  M3,5 l2,-2"
      style="stroke: black; stroke-width: 1" />
</pattern>

<pattern id="sync_v" patternUnits="userSpaceOnUse" width="4" height="4">
<rect x="0" y="0" width="4" height="4" style="fill:#8be"/>
<path d="M0,0  l4,4   M3,-1 l4,4  M-1,3 l4,4"
      style="stroke: black; stroke-width: 1" />
</pattern>

<style>
  text {
    font-family: Geneva, monospace;
    font-size: 8pt;
  }

  .sync_h {
    fill: url("#sync_h");
    opacity: 0.66;
  }

  .sync_v {
    fill: url("#sync_v");
    opacity: 0.66;
  }

  .active {
    fill: none;
    stroke: #fff;
    opacity: 0.5;
    stroke-dasharray: 2 2;
  }
</style>

<rect fill="#000" stroke="#000" x="0" y="0" width="1000" height="500"/>

<rect x="0"   y=  "0" width= "108" height="486" fill="#444" />
<g transform="translate(  3,42)"><text fill="#fff" transform="rotate(90)">0x45; rgb332(1,1,1)</text></g>
<rect x="108" y=  "0" width= "108" height="486" fill="#fff" />
<g transform="translate(111,42)"><text fill="#000" transform="rotate(90)">0xff; rgb332(7,7,3)</text></g>
<rect x="216" y=  "0" width= "108" height="486" fill="#ff0" />
<g transform="translate(219,42)"><text fill="#000" transform="rotate(90)">0xfc; rgb332(7,7,0)</text></g>
<rect x="324" y=  "0" width= "108" height="486" fill="#0ff" />
<g transform="translate(327,42)"><text fill="#000" transform="rotate(90)">0x1f; rgb332(0,7,3)</text></g>
<rect x="432" y=  "0" width= "108" height="486" fill="#0f0" />
<g transform="translate(435,42)"><text fill="#000" transform="rotate(90)">0x1c; rgb332(0,7,0)</text></g>
<rect x="540" y=  "0" width= "108" height="486" fill="#f0f" />
<g transform="translate(543,42)"><text fill="#fff" transform="rotate(90)">0xe3; rgb332(7,0,3)</text></g>
<rect x="648" y=  "0" width= "108" height="486" fill="#f00" />
<g transform="translate(651,42)"><text fill="#fff" transform="rotate(90)">0xe0; rgb332(7,0,0)</text></g>
<rect x="756" y=  "0" width= "108" height="486" fill="#00f" />
<g transform="translate(759,42)"><text fill="#fff" transform="rotate(90)">0x03; rgb332(0,0,3)</text></g>

<rect x="904" y=  "0" width=  "32" height="500" class="sync_h" />
<rect x=  "0" y="489" width="1000" height=  "5" class="sync_v" />

<g transform="translate(867,42)"><text fill="#fff" transform="rotate(90)">X=864 HFrontPorch (40)</text></g>
<g transform="translate(907,42)"><text fill="#fff" transform="rotate(90)">X=904 HSyncActive (32)</text></g>
<g transform="translate(939,42)"><text fill="#fff" transform="rotate(90)">X=936 HBackPorch (≥ 64)</text></g>

<line x1="20" x2="160" y1="486" y2="400" stroke="#999"/><text x="162" y="400">Y=486: VFrontPorch (3)</text>
<line x1="30" x2="160" y1="489" y2="420" stroke="#999"/><text x="162" y="420">Y=489: VSyncActive (5)</text>
<line x1="40" x2="160" y1="494" y2="440" stroke="#999"/><text x="162" y="440">Y=494: VBackPorch (6)</text>

<rect x="0" y="0" width="864" height="486" class="active" />

</svg>
